<svg id="Layer_1" data-name="Layer 1" xmlns="http://www.w3.org/2000/svg" viewBox="0 0 1480 800"><title>final</title><path d="M1387.8,70.9H1181.6a7.3,7.3,0,0,0-7.3,7.3v70.5a7.3,7.3,0,0,0,7.3,7.3h206.2a7.3,7.3,0,0,0,7.2-7.3V78.2A7.3,7.3,0,0,0,1387.8,70.9Zm-1.1,76.8H1182.6V79.2h204.1Zm-104.5-21V100.1a2.5,2.5,0,0,1,2.5-2.4,2.5,2.5,0,0,1,2.5,2.4v26.6a2.5,2.5,0,0,1-2.5,2.5A2.5,2.5,0,0,1,1282.2,126.7Zm18.5,0V100.1a2.5,2.5,0,0,1,5,0v26.6a2.5,2.5,0,1,1-5,0Zm18.5,0V100.1a2.5,2.5,0,0,1,5,0v26.6a2.5,2.5,0,1,1-5,0Zm18.5,0V100.1a2.5,2.5,0,0,1,5,0v26.6a2.5,2.5,0,1,1-5,0Zm-129.6,0V100.1a2.5,2.5,0,0,1,5,0v26.6a2.5,2.5,0,1,1-5,0Zm18.5,0V100.1a2.5,2.5,0,0,1,2.5-2.4,2.5,2.5,0,0,1,2.5,2.4v26.6a2.5,2.5,0,0,1-2.5,2.5A2.5,2.5,0,0,1,1226.6,126.7Zm18.6,0V100.1a2.5,2.5,0,0,1,4.9,0v26.6a2.5,2.5,0,1,1-4.9,0Zm18.5,0V100.1a2.5,2.5,0,0,1,4.9,0v26.6a2.5,2.5,0,1,1-4.9,0Zm92.5,0V100.1a2.5,2.5,0,0,1,5,0v26.6a2.5,2.5,0,0,1-5,0Zm5.5,40.9a4.1,4.1,0,0,1-4.1,4.1H1211.8a4.1,4.1,0,1,1,0-8.2h145.8A4.1,4.1,0,0,1,1361.7,167.6Z" style="fill:#36393a"/><path d="M1208.3,226.9H1200l-1.9,5.9h-4.2l8-22.6h4.5l8,22.6h-4.2Zm-7.4-3.1h6.4l-3.1-9.6h-.1Z" style="fill:#36393a"/><path d="M1230.6,232.8h-3.7v-2.9h-.1a5.1,5.1,0,0,1-5.1,3.2c-3.5,0-5.8-2.4-5.8-6.2V216.2h3.9v9.9c0,2.4,1.1,3.7,3.3,3.7s3.6-1.6,3.6-4v-9.6h3.9Z" style="fill:#36393a"/><path d="M1238.8,212.3v3.9h3.1v3h-3.1v8.6c0,1.4.6,2,2,2h1.1v3h-2c-3.6,0-5-1.2-5-4.4v-9.2h-2.4v-3h2.4v-3.9Z" style="fill:#36393a"/><path d="M1244.7,210.2h3.8V219h.1a5.3,5.3,0,0,1,5.2-3.1c3.7,0,5.8,2.4,5.8,6.2v10.7h-3.9v-9.9c0-2.3-1.1-3.7-3.4-3.7a3.7,3.7,0,0,0-3.8,4v9.6h-3.8Z" style="fill:#36393a"/><path d="M1262,224.5c0-5.4,3.2-8.6,8-8.6s8.1,3.2,8.1,8.6-3.2,8.6-8.1,8.6S1262,229.9,1262,224.5Zm12.1,0c0-3.5-1.6-5.6-4.1-5.6s-4,2.1-4,5.6,1.6,5.5,4,5.5S1274.1,228,1274.1,224.5Z" style="fill:#36393a"/><path d="M1280.6,216.2h3.7v2.9h.1a3.9,3.9,0,0,1,3.9-3.2l1.3.2v3.5l-1.6-.2a3.4,3.4,0,0,0-3.6,3.7v9.7h-3.8Z" style="fill:#36393a"/><path d="M1291.4,211.6a2.1,2.1,0,0,1,2.2-2.1,2.1,2.1,0,0,1,2.1,2.1,2.1,2.1,0,0,1-2.1,2.1A2.2,2.2,0,0,1,1291.4,211.6Zm.3,4.6h3.8v16.6h-3.8Z" style="fill:#36393a"/><path d="M1303.8,212.3v3.9h3.1v3h-3.1v8.6c0,1.4.6,2,2,2h1.1v3h-2c-3.6,0-5-1.2-5-4.4v-9.2h-2.4v-3h2.4v-3.9Z" style="fill:#36393a"/><path d="M1308.7,228c0-2.9,2.2-4.7,6.3-4.9l4.3-.3v-1.2c0-1.7-1.1-2.7-3.1-2.7s-3,.9-3.2,2.3h-3.6c.1-3.1,2.8-5.3,7-5.3s6.8,2.1,6.8,5.5v11.4h-3.8v-2.7h0a6,6,0,0,1-5.2,2.9C1311,233,1308.7,231,1308.7,228Zm10.6-1.4v-1.2l-3.8.2c-1.9.1-2.9,1-2.9,2.3s1.1,2.2,2.8,2.2A3.6,3.6,0,0,0,1319.3,226.6Z" style="fill:#36393a"/><path d="M1331.3,212.3v3.9h3.1v3h-3.1v8.6c0,1.4.6,2,2,2h1.1v3h-2c-3.6,0-5-1.2-5-4.4v-9.2H1325v-3h2.4v-3.9Z" style="fill:#36393a"/><path d="M1336.9,211.6a2.1,2.1,0,0,1,2.2-2.1,2.1,2.1,0,0,1,2.1,2.1,2.1,2.1,0,0,1-2.1,2.1A2.2,2.2,0,0,1,1336.9,211.6Zm.2,4.6h3.9v16.6h-3.9Z" style="fill:#36393a"/><path d="M1353,232.8h-4.2l-5.9-16.6h4.1l3.9,13h.1l3.8-13h4.1Z" style="fill:#36393a"/><path d="M1374.8,227.8c-.5,3.1-3.4,5.3-7.3,5.3s-8-3.3-8-8.6,3-8.6,7.8-8.6,7.6,3.2,7.6,8.3v1.2h-11.5v.3c0,2.6,1.6,4.4,4.1,4.4a3.6,3.6,0,0,0,3.7-2.3Zm-11.4-4.9h7.7a3.7,3.7,0,0,0-3.8-4C1365.1,218.9,1363.6,220.5,1363.4,222.9Z" style="fill:#36393a"/><path d="M1202.6,254.6h3.7v2.8h.1a5.4,5.4,0,0,1,5.2-3.1c3.7,0,5.7,2.3,5.7,6.2v10.7h-3.9v-10c0-2.3-1-3.6-3.3-3.6s-3.6,1.6-3.6,4v9.6h-3.9Z" style="fill:#36393a"/><path d="M1219.8,266.4c0-2.9,2.3-4.7,6.3-4.9l4.4-.3V260c0-1.7-1.2-2.7-3.1-2.7s-3,.9-3.3,2.3h-3.6c.2-3.1,2.8-5.3,7-5.3s6.8,2.1,6.8,5.5v11.4h-3.7v-2.7h-.1a6,6,0,0,1-5.2,2.9C1222.1,271.4,1219.8,269.4,1219.8,266.4Zm10.7-1.4v-1.2l-3.9.2c-1.8.1-2.9,1-2.9,2.3s1.1,2.2,2.8,2.2A3.7,3.7,0,0,0,1230.5,265Z" style="fill:#36393a"/><path d="M1237.4,254.6h3.8v2.9h0a5,5,0,0,1,4.8-3.2,4.5,4.5,0,0,1,4.6,3.3h.1a5.3,5.3,0,0,1,5.1-3.3,5.1,5.1,0,0,1,5.4,5.5v11.4h-3.8V260.8c0-2.1-1.1-3.2-3-3.2a3.1,3.1,0,0,0-3.2,3.3v10.3h-3.8V260.6a2.7,2.7,0,0,0-2.9-3,3.2,3.2,0,0,0-3.2,3.4v10.2h-3.9Z" style="fill:#36393a"/><path d="M1279,266.2c-.5,3.1-3.4,5.3-7.4,5.3s-7.9-3.3-7.9-8.6,3-8.6,7.8-8.6,7.6,3.2,7.6,8.3v1.2h-11.6v.3a4.1,4.1,0,0,0,4.2,4.4,3.5,3.5,0,0,0,3.6-2.3Zm-11.4-4.9h7.7c-.1-2.4-1.6-4-3.8-4A3.9,3.9,0,0,0,1267.6,261.3Z" style="fill:#36393a"/><path d="M1288,254.3c4,0,6.6,2.1,6.7,5.3H1291a2.7,2.7,0,0,0-3-2.5c-1.8,0-2.9.8-2.9,2s.7,1.7,2.4,2l2.8.7c3.4.7,4.7,2,4.7,4.5s-2.8,5.2-6.9,5.2-6.9-2.1-7.2-5.3h3.8c.3,1.6,1.4,2.4,3.4,2.4s3.1-.7,3.1-2-.6-1.5-2.4-1.9l-2.7-.6q-4.8-1.1-4.8-4.8C1281.3,256.3,1284,254.3,1288,254.3Z" style="fill:#36393a"/><path d="M1312.1,266.2c-.5,3.1-3.4,5.3-7.3,5.3s-8-3.3-8-8.6,3.1-8.6,7.8-8.6,7.7,3.2,7.7,8.3v1.2h-11.6v.3a4,4,0,0,0,4.2,4.4,3.5,3.5,0,0,0,3.6-2.3Zm-11.4-4.9h7.8c-.1-2.4-1.6-4-3.8-4A4,4,0,0,0,1300.7,261.3Z" style="fill:#36393a"/><path d="M1314.8,254.6h3.7v2.9h.1a4,4,0,0,1,4-3.2l1.2.2V258l-1.6-.2c-2.2,0-3.5,1.4-3.5,3.7v9.7h-3.9Z" style="fill:#36393a"/><path d="M1334.5,271.2h-4.3l-5.8-16.6h4.1l3.9,13h0l3.9-13h4.1Z" style="fill:#36393a"/><path d="M1356.3,266.2c-.5,3.1-3.4,5.3-7.4,5.3s-7.9-3.3-7.9-8.6,3-8.6,7.8-8.6,7.6,3.2,7.6,8.3v1.2h-11.5v.3c0,2.6,1.6,4.4,4.1,4.4a3.5,3.5,0,0,0,3.6-2.3Zm-11.4-4.9h7.7c-.1-2.4-1.6-4-3.8-4A3.9,3.9,0,0,0,1344.9,261.3Z" style="fill:#36393a"/><path d="M1358.9,254.6h3.8v2.9h0a4.1,4.1,0,0,1,4-3.2l1.2.2V258l-1.5-.2a3.4,3.4,0,0,0-3.6,3.7v9.7h-3.9Z" style="fill:#36393a"/><path d="M632.8,111.9H426.6a7.3,7.3,0,0,0-7.3,7.3v70.5a7.3,7.3,0,0,0,7.3,7.3H632.8a7.3,7.3,0,0,0,7.2-7.3V119.2A7.3,7.3,0,0,0,632.8,111.9Zm-1.1,76.8H427.6V120.2H631.7Zm-104.5-21V141.1a2.5,2.5,0,0,1,2.5-2.4,2.5,2.5,0,0,1,2.5,2.4v26.6a2.5,2.5,0,0,1-2.5,2.5A2.5,2.5,0,0,1,527.2,167.7Zm18.5,0V141.1a2.5,2.5,0,0,1,5,0v26.6a2.5,2.5,0,1,1-5,0Zm18.5,0V141.1a2.5,2.5,0,0,1,5,0v26.6a2.5,2.5,0,1,1-5,0Zm18.5,0V141.1a2.5,2.5,0,0,1,5,0v26.6a2.5,2.5,0,1,1-5,0Zm-129.6,0V141.1a2.5,2.5,0,0,1,5,0v26.6a2.5,2.5,0,0,1-5,0Zm18.5,0V141.1a2.5,2.5,0,0,1,2.5-2.4,2.5,2.5,0,0,1,2.5,2.4v26.6a2.5,2.5,0,0,1-2.5,2.5A2.5,2.5,0,0,1,471.6,167.7Zm18.6,0V141.1a2.5,2.5,0,0,1,4.9,0v26.6a2.5,2.5,0,1,1-4.9,0Zm18.5,0V141.1a2.5,2.5,0,0,1,4.9,0v26.6a2.5,2.5,0,1,1-4.9,0Zm92.5,0V141.1a2.5,2.5,0,0,1,5,0v26.6a2.5,2.5,0,1,1-5,0Zm5.5,40.9a4.1,4.1,0,0,1-4.1,4.1H456.8a4.1,4.1,0,1,1,0-8.2H602.6A4.1,4.1,0,0,1,606.7,208.6Z" style="fill:#36393a"/><path d="M460.2,251.2c6.8,0,10.7,4.1,10.7,11.2s-3.9,11.4-10.7,11.4H452V251.2ZM456,270.4h3.8c4.5,0,7-2.8,7-8s-2.5-7.8-7-7.8H456Z" style="fill:#36393a"/><path d="M474.2,273.8V251.2h3.5L488.8,267h.2V251.2h3.9v22.6h-3.5l-11.2-15.9H478v15.9Z" style="fill:#36393a"/><path d="M499.8,267.5c.3,2,2.3,3.3,5.1,3.3s4.6-1.4,4.6-3.2-1.1-2.7-4.1-3.3l-2.4-.5c-4.5-.9-6.6-3-6.6-6.3s3.5-6.7,8.4-6.7,8.3,2.8,8.4,6.8h-3.9c-.2-2.1-2-3.4-4.6-3.4s-4.2,1.2-4.2,3.1,1.1,2.5,3.9,3.1l2.4.5c4.8,1,6.8,2.9,6.8,6.2s-3.4,7-8.8,7-8.7-2.5-8.9-6.6Z" style="fill:#36393a"/><path d="M528.9,256.9c4.1,0,6.6,2.1,6.7,5.3H532c-.1-1.5-1.3-2.5-3.1-2.5s-2.8.8-2.8,2,.7,1.7,2.4,2l2.8.7c3.4.7,4.7,2,4.7,4.5s-2.8,5.2-6.9,5.2-6.9-2.1-7.2-5.3h3.8c.3,1.6,1.4,2.4,3.4,2.4s3.1-.7,3.1-2-.6-1.5-2.4-1.9l-2.7-.6q-4.8-1.1-4.8-4.8C522.3,258.9,524.9,256.9,528.9,256.9Z" style="fill:#36393a"/><path d="M553.1,268.8c-.5,3.1-3.4,5.3-7.3,5.3s-8-3.3-8-8.6,3-8.6,7.8-8.6,7.7,3.2,7.7,8.3v1.2H541.7v.3a4,4,0,0,0,4.2,4.4,3.6,3.6,0,0,0,3.6-2.3Zm-11.4-4.9h7.7a3.7,3.7,0,0,0-3.8-4C543.4,259.9,541.9,261.5,541.7,263.9Z" style="fill:#36393a"/><path d="M555.8,257.2h3.7v2.9h.1a3.9,3.9,0,0,1,3.9-3.2l1.3.2v3.5l-1.6-.2c-2.2,0-3.5,1.4-3.5,3.7v9.7h-3.9Z" style="fill:#36393a"/><path d="M575.5,273.8h-4.3l-5.8-16.6h4.1l3.9,13h0l3.9-13h4Z" style="fill:#36393a"/><path d="M597.3,268.8c-.5,3.1-3.4,5.3-7.4,5.3s-7.9-3.3-7.9-8.6,3-8.6,7.8-8.6,7.6,3.2,7.6,8.3v1.2H585.8v.3a4.1,4.1,0,0,0,4.2,4.4,3.5,3.5,0,0,0,3.6-2.3Zm-11.4-4.9h7.7c-.1-2.4-1.6-4-3.8-4A3.9,3.9,0,0,0,585.9,263.9Z" style="fill:#36393a"/><path d="M599.9,257.2h3.8v2.9h0a4,4,0,0,1,4-3.2l1.2.2v3.5l-1.6-.2c-2.2,0-3.5,1.4-3.5,3.7v9.7h-3.9Z" style="fill:#36393a"/><path d="M472.6,767.9h-8.3l-1.9,5.9h-4.1l8-22.6h4.5l8,22.6h-4.2Zm-7.3-3.1h6.4l-3.1-9.6h-.2Z" style="fill:#36393a"/><path d="M484.8,753.3v3.9h3.1v3h-3.1v8.6c0,1.4.6,2,2,2h1.1v3h-2c-3.6,0-5-1.2-5-4.4v-9.2h-2.3v-3h2.3v-3.9Z" style="fill:#36393a"/><path d="M495.6,753.3v3.9h3.1v3h-3.1v8.6c0,1.4.6,2,2,2h1.1v3h-2.1c-3.5,0-4.9-1.2-4.9-4.4v-9.2h-2.4v-3h2.4v-3.9Z" style="fill:#36393a"/><path d="M500.4,769c0-2.9,2.3-4.7,6.3-4.9l4.4-.3v-1.2c0-1.7-1.2-2.7-3.1-2.7s-3,.9-3.2,2.3h-3.7c.2-3.1,2.9-5.3,7.1-5.3s6.8,2.1,6.8,5.5v11.4h-3.8v-2.7h-.1A5.7,5.7,0,0,1,506,774C502.8,774,500.4,772,500.4,769Zm10.7-1.4v-1.2l-3.8.2c-1.9.1-3,1-3,2.3s1.2,2.2,2.8,2.2A3.7,3.7,0,0,0,511.1,767.6Z" style="fill:#36393a"/><path d="M529,763.1a3.4,3.4,0,0,0-3.6-3.1c-2.5,0-4.1,2.1-4.1,5.5s1.6,5.4,4.1,5.4a3.4,3.4,0,0,0,3.6-3h3.7c-.3,3.8-3.2,6.2-7.3,6.2s-8-3.2-8-8.6,3.1-8.6,7.9-8.6,7.1,2.7,7.4,6.2Z" style="fill:#36393a"/><path d="M545.3,757.2h4.5l-6.7,7.1,7,9.5h-4.5l-5.3-7.1L539,768v5.8h-3.9V751.2H539v12.9h.1Z" style="fill:#36393a"/><path d="M565.4,768.8c-.5,3.1-3.4,5.3-7.3,5.3s-8-3.3-8-8.6,3.1-8.6,7.8-8.6,7.7,3.2,7.7,8.3v1.2H554v.3a4,4,0,0,0,4.2,4.4,3.5,3.5,0,0,0,3.6-2.3ZM554,763.9h7.8c-.1-2.4-1.6-4-3.8-4A4,4,0,0,0,554,763.9Z" style="fill:#36393a"/><path d="M568.1,757.2h3.7v2.9h.1a4,4,0,0,1,4-3.2l1.2.2v3.5l-1.6-.2c-2.2,0-3.5,1.4-3.5,3.7v9.7h-3.9Z" style="fill:#36393a"/><path d="M73.2,394.7l-1.5,8.5H67.9l2.3-8.5Zm6.5,0-1.3,8.5H74.6l2.1-8.5Z" style="fill:#36393a"/><path d="M91.5,417.3H87.7l-6-22.6h4.2l3.9,17.1h.1l4.5-17.1H98l4.5,17.1h.2l3.9-17.1h4.2l-6.1,22.6h-3.8L96.3,401h-.1Z" style="fill:#36393a"/><path d="M113.1,394.7H117v8.9h.1a5.3,5.3,0,0,1,5.2-3.2c3.6,0,5.8,2.4,5.8,6.2v10.7h-3.9v-9.9c0-2.3-1.2-3.7-3.4-3.7s-3.8,1.6-3.8,4.1v9.5h-3.9Z" style="fill:#36393a"/><path d="M130.5,412.6c0-3,2.3-4.8,6.3-5l4.4-.3v-1.1c0-1.8-1.2-2.8-3.1-2.8s-3,.9-3.2,2.3h-3.7c.2-3.1,2.9-5.3,7.1-5.3s6.8,2.2,6.8,5.5v11.4h-3.8v-2.7h-.1a5.8,5.8,0,0,1-5.1,3C132.9,417.6,130.5,415.5,130.5,412.6Zm10.7-1.5v-1.2l-3.8.2c-1.9.1-3,1-3,2.3s1.2,2.2,2.8,2.2A3.7,3.7,0,0,0,141.2,411.1Z" style="fill:#36393a"/><path d="M153.2,396.8v3.9h3.1v3h-3.1v8.6c0,1.4.6,2,2,2h1.1v3l-2.1.2c-3.5,0-4.9-1.3-4.9-4.5v-9.2h-2.4v-3h2.4v-3.9Z" style="fill:#36393a"/><path d="M158.9,403.2l1.4-8.5h3.8l-2.2,8.5Z" style="fill:#36393a"/><path d="M171.7,400.4c4,0,6.6,2.2,6.7,5.3h-3.6a2.8,2.8,0,0,0-3.1-2.5c-1.7,0-2.8.9-2.8,2.1s.6,1.6,2.4,2l2.7.6c3.5.7,4.8,2.1,4.8,4.5s-2.9,5.2-6.9,5.2-6.9-2-7.2-5.3h3.8c.3,1.7,1.4,2.5,3.4,2.5s3-.8,3-2-.6-1.6-2.3-2l-2.8-.6c-3.1-.7-4.7-2.3-4.7-4.7S167.7,400.4,171.7,400.4Z" style="fill:#36393a"/><path d="M192.6,396.8v3.9h3.2v3h-3.2v8.6a1.8,1.8,0,0,0,2,2h1.1v3l-2,.2c-3.5,0-5-1.3-5-4.5v-9.2h-2.3v-3h2.3v-3.9Z" style="fill:#36393a"/><path d="M198.5,394.7h3.9v8.9h0a5.5,5.5,0,0,1,5.3-3.2c3.6,0,5.8,2.4,5.8,6.2v10.7h-3.9v-9.9c0-2.3-1.2-3.7-3.4-3.7s-3.8,1.6-3.8,4.1v9.5h-3.9Z" style="fill:#36393a"/><path d="M231.2,412.3c-.5,3.2-3.4,5.3-7.3,5.3s-8-3.3-8-8.5,3-8.7,7.8-8.7,7.6,3.2,7.6,8.3v1.2H219.8v.3c0,2.6,1.6,4.4,4.1,4.4a3.5,3.5,0,0,0,3.6-2.3Zm-11.4-4.9h7.7c-.1-2.4-1.6-4-3.8-4A3.9,3.9,0,0,0,219.8,407.4Z" style="fill:#36393a"/><path d="M240.6,417.3V394.7h4.1v22.6Z" style="fill:#36393a"/><path d="M257.4,394.7a7.2,7.2,0,0,1,7.6,7.6c0,4.5-3.2,7.5-7.8,7.5h-4.5v7.5h-4.1V394.7Zm-4.7,11.9h3.6c2.9,0,4.6-1.6,4.6-4.3s-1.7-4.3-4.6-4.3h-3.6Z" style="fill:#36393a"/><path d="M275,403.7h-2.2v-2.9H275v-1.5c0-3.2,1.6-4.7,5.2-4.7h2v2.8H281c-1.5,0-2.1.7-2.1,2v1.4h3.3v2.9h-3.3v13.6H275Z" style="fill:#36393a"/><path d="M283.5,409c0-5.3,3.2-8.6,8-8.6s8,3.2,8,8.6-3.2,8.6-8,8.6S283.5,414.4,283.5,409Zm12,0c0-3.5-1.6-5.5-4-5.5s-4.1,2-4.1,5.5,1.6,5.5,4.1,5.5S295.5,412.5,295.5,409Z" style="fill:#36393a"/><path d="M302,400.7h3.7v2.9h.1a4,4,0,0,1,4-3.2l1.2.2v3.5l-1.6-.2c-2.2,0-3.5,1.4-3.5,3.7v9.7H302Z" style="fill:#36393a"/><path d="M94,450.7c-.5,3.2-3.4,5.3-7.3,5.3s-8-3.3-8-8.5,3-8.7,7.8-8.7,7.6,3.2,7.6,8.3v1.2H82.6v.3c0,2.6,1.6,4.4,4.1,4.4a3.5,3.5,0,0,0,3.6-2.3Zm-11.4-4.9h7.7c-.1-2.4-1.6-4-3.8-4A3.9,3.9,0,0,0,82.6,445.8Z" style="fill:#36393a"/><path d="M102.8,449.7l-3.5,6H95.2l5.3-8.3-5.3-8.3h4.4l3.3,5.8h.1l3.3-5.8h4.3l-5.3,8.2,5.2,8.4h-4.2l-3.5-6Z" style="fill:#36393a"/><path d="M111.7,451c0-3,2.2-4.8,6.2-5l4.4-.3v-1.1c0-1.8-1.1-2.8-3.1-2.8s-3,.9-3.2,2.3h-3.6c.1-3.1,2.8-5.3,7-5.3s6.8,2.2,6.8,5.5v11.4h-3.8V453h-.1a5.8,5.8,0,0,1-5.1,3C114,456,111.7,453.9,111.7,451Zm10.6-1.5v-1.2l-3.8.2c-1.9.1-3,1-3,2.3s1.2,2.2,2.9,2.2A3.6,3.6,0,0,0,122.3,449.5Z" style="fill:#36393a"/><path d="M129.3,439.1H133V442h.1a4.9,4.9,0,0,1,4.7-3.2,4.4,4.4,0,0,1,4.6,3.3h.1a5.4,5.4,0,0,1,5.2-3.3,5.1,5.1,0,0,1,5.4,5.5v11.4h-3.9V445.3c0-2.1-1-3.2-3-3.2a3.1,3.1,0,0,0-3.1,3.4v10.2h-3.8V445.1a2.7,2.7,0,0,0-2.9-3,3.2,3.2,0,0,0-3.2,3.4v10.2h-3.9Z" style="fill:#36393a"/><path d="M172.2,447.4c0,5.3-2.7,8.6-6.8,8.6a5.5,5.5,0,0,1-5.2-3.1h-.1v8.2h-3.9v-22H160V442h.1a5.6,5.6,0,0,1,5.2-3.2C169.5,438.8,172.2,442.1,172.2,447.4Zm-4,0c0-3.3-1.6-5.4-4.1-5.4s-4,2.2-4,5.4,1.6,5.4,4,5.4S168.2,450.7,168.2,447.4Z" style="fill:#36393a"/><path d="M174.8,433.1h3.9v22.6h-3.9Z" style="fill:#36393a"/><path d="M196.6,450.7c-.5,3.2-3.4,5.3-7.3,5.3s-8-3.3-8-8.5,3-8.7,7.8-8.7,7.7,3.2,7.7,8.3v1.2H185.2v.3a4,4,0,0,0,4.2,4.4,3.6,3.6,0,0,0,3.6-2.3Zm-11.4-4.9h7.7a3.7,3.7,0,0,0-3.8-4C186.9,441.8,185.4,443.5,185.2,445.8Z" style="fill:#36393a"/><path d="M199.7,453.6a2.2,2.2,0,0,1,2.3-2.2,2.2,2.2,0,0,1,2.2,2.2,2.3,2.3,0,1,1-4.5,0Z" style="fill:#36393a"/><path d="M218,445a3.5,3.5,0,0,0-3.6-3.1c-2.5,0-4,2.1-4,5.5s1.5,5.5,4,5.5a3.4,3.4,0,0,0,3.6-3h3.7c-.3,3.7-3.2,6.1-7.3,6.1s-8-3.2-8-8.6,3.1-8.6,7.9-8.6,7.1,2.7,7.4,6.2Z" style="fill:#36393a"/><path d="M223.3,447.4c0-5.3,3.2-8.6,8-8.6s8.1,3.2,8.1,8.6-3.2,8.6-8.1,8.6S223.3,452.8,223.3,447.4Zm12.1,0c0-3.5-1.6-5.5-4.1-5.5s-4,2-4,5.5,1.6,5.5,4,5.5S235.4,450.9,235.4,447.4Z" style="fill:#36393a"/><path d="M241.9,439.1h3.7V442h.1a4.8,4.8,0,0,1,4.7-3.2,4.5,4.5,0,0,1,4.6,3.3h.1a5.4,5.4,0,0,1,5.2-3.3,5.2,5.2,0,0,1,5.4,5.5v11.4h-3.9V445.3c0-2.1-1.1-3.2-3-3.2a3.1,3.1,0,0,0-3.1,3.4v10.2h-3.8V445.1a2.8,2.8,0,0,0-3-3,3.2,3.2,0,0,0-3.2,3.4v10.2h-3.8Z" style="fill:#36393a"/><path d="M275.3,433c4.3,0,7.2,2.4,7.2,5.9s-1.2,4-3.3,5.3-2.7,2-2.7,3.5v1h-3.6v-1.2c-.1-2.3.8-3.7,2.9-4.9s2.6-2.1,2.6-3.6-1.3-2.9-3.3-2.9a3.2,3.2,0,0,0-3.4,3.2H268C268.2,435.6,270.7,433,275.3,433Zm-2.8,20.8a2.2,2.2,0,0,1,2.3-2.2,2.2,2.2,0,0,1,2.2,2.2,2.2,2.2,0,0,1-2.2,2.2A2.2,2.2,0,0,1,272.5,453.8Z" style="fill:#36393a"/><path d="M285.8,441.6l1.3-8.5h3.8l-2.2,8.5Zm6.6,0,1.3-8.5h3.9l-2.3,8.5Z" style="fill:#36393a"/><path d="M771.3,337.1l-1.4,8.5h-3.8l2.2-8.5Zm6.6,0-1.3,8.5h-3.9l2.2-8.5Z" style="fill:#36393a"/><path d="M796.8,359.7v-9.8H785.9v9.8h-4.1V337.1h4.1v9.4h10.9v-9.4h4.1v22.6Z" style="fill:#36393a"/><path d="M819,354.7c-.5,3.2-3.4,5.3-7.3,5.3s-8-3.3-8-8.5,3.1-8.7,7.9-8.7,7.6,3.2,7.6,8.3v1.2H807.6v.3a4,4,0,0,0,4.2,4.4,3.5,3.5,0,0,0,3.6-2.3Zm-11.3-4.9h7.7c-.1-2.4-1.6-4-3.8-4A3.9,3.9,0,0,0,807.7,349.8Z" style="fill:#36393a"/><path d="M821.9,365.8v-3.1H823a2.6,2.6,0,0,0,2.9-2.2l.2-.9-5.9-16.6h4.2l3.9,13.3h.1l3.9-13.3h4.1l-6,17.2c-1.4,4.2-3.2,5.5-7,5.5Z" style="fill:#36393a"/><path d="M835.9,364.5l1.3-8.5H841l-2.1,8.5Z" style="fill:#36393a"/><path d="M849.7,359.7V337.1h4v22.6Z" style="fill:#36393a"/><path d="M863.1,355c0-3,2.2-4.8,6.3-5l4.3-.3v-1.1c0-1.8-1.1-2.8-3-2.8s-3.1.9-3.3,2.3h-3.6c.1-3.1,2.8-5.3,7-5.3s6.8,2.2,6.8,5.5v11.4h-3.8V357h0a6.1,6.1,0,0,1-5.2,3C865.4,360,863.1,357.9,863.1,355Zm10.6-1.5v-1.2l-3.8.2c-1.9.1-2.9,1-2.9,2.3s1.1,2.2,2.8,2.2A3.6,3.6,0,0,0,873.7,353.5Z" style="fill:#36393a"/><path d="M880.7,343.1h3.7V346h.1a4.9,4.9,0,0,1,4.7-3.2,4.5,4.5,0,0,1,4.7,3.3h.1a5.3,5.3,0,0,1,5.1-3.3,5.1,5.1,0,0,1,5.4,5.5v11.4h-3.9V349.3c0-2.1-1-3.2-2.9-3.2a3.2,3.2,0,0,0-3.2,3.4v10.2h-3.8V349.1a2.7,2.7,0,0,0-2.9-3,3.2,3.2,0,0,0-3.2,3.4v10.2h-3.9Z" style="fill:#36393a"/><path d="M913.4,355c0-3,2.3-4.8,6.3-5l4.4-.3v-1.1c0-1.8-1.2-2.8-3.1-2.8s-3.1.9-3.3,2.3h-3.6c.2-3.1,2.8-5.3,7-5.3s6.8,2.2,6.8,5.5v11.4h-3.7V357h-.1a6.1,6.1,0,0,1-5.2,3C915.7,360,913.4,357.9,913.4,355Zm10.7-1.5v-1.2l-3.9.2c-1.8.1-2.9,1-2.9,2.3s1.1,2.2,2.8,2.2A3.7,3.7,0,0,0,924.1,353.5Z" style="fill:#36393a"/><path d="M931,343.1h3.8V346h0a5.4,5.4,0,0,1,5.2-3.2c3.7,0,5.8,2.4,5.8,6.2v10.7h-3.9v-9.9c0-2.4-1.1-3.7-3.3-3.7s-3.7,1.6-3.7,4v9.6H931Z" style="fill:#36393a"/><path d="M767.4,393.4c0-3,2.2-4.8,6.3-5l4.3-.3V387c0-1.8-1.1-2.8-3.1-2.8s-3,.9-3.2,2.3h-3.6c.1-3.1,2.8-5.3,7-5.3s6.8,2.2,6.8,5.5v11.4h-3.8v-2.7h0a6.1,6.1,0,0,1-5.2,3C769.7,398.4,767.4,396.3,767.4,393.4Zm10.6-1.5v-1.2l-3.8.2c-1.9.1-2.9,1-2.9,2.3s1.1,2.2,2.8,2.2A3.6,3.6,0,0,0,778,391.9Z" style="fill:#36393a"/><path d="M799.7,398.1h-3.8v-2.9h0a5.2,5.2,0,0,1-5.1,3.2c-3.6,0-5.9-2.3-5.9-6.2V381.5h3.9v9.9c0,2.4,1.2,3.7,3.4,3.7s3.6-1.6,3.6-4v-9.6h3.9Z" style="fill:#36393a"/><path d="M807.8,377.6v3.9H811v3h-3.2v8.6a1.8,1.8,0,0,0,2,2h1.1v3l-2,.2c-3.6,0-5-1.3-5-4.5v-9.2h-2.3v-3h2.3v-3.9Z" style="fill:#36393a"/><path d="M813.7,375.5h3.9v8.9h0a5.4,5.4,0,0,1,5.3-3.2c3.6,0,5.8,2.4,5.8,6.2v10.7h-3.9v-9.9c0-2.3-1.2-3.7-3.4-3.7s-3.8,1.6-3.8,4.1v9.5h-3.9Z" style="fill:#36393a"/><path d="M831.1,389.8c0-5.3,3.2-8.6,8-8.6s8,3.2,8,8.6-3.1,8.6-8,8.6S831.1,395.2,831.1,389.8Zm12.1,0c0-3.5-1.6-5.5-4.1-5.5s-4.1,2-4.1,5.5,1.6,5.5,4.1,5.5S843.2,393.3,843.2,389.8Z" style="fill:#36393a"/><path d="M849.6,381.5h3.7v2.9h.1a4,4,0,0,1,4-3.2l1.2.2v3.5l-1.6-.2c-2.2,0-3.5,1.4-3.5,3.7v9.7h-3.9Z" style="fill:#36393a"/><path d="M860.5,376.9a2.1,2.1,0,0,1,2.1-2.1,2.1,2.1,0,1,1,0,4.2A2.1,2.1,0,0,1,860.5,376.9Zm.2,4.6h3.9v16.6h-3.9Z" style="fill:#36393a"/><path d="M872.8,377.6v3.9H876v3h-3.2v8.6a1.8,1.8,0,0,0,2,2h1.1v3l-2,.2c-3.6,0-5-1.3-5-4.5v-9.2h-2.3v-3h2.3v-3.9Z" style="fill:#36393a"/><path d="M877.7,393.4c0-3,2.3-4.8,6.3-5l4.4-.3V387c0-1.8-1.2-2.8-3.1-2.8a3.1,3.1,0,0,0-3.3,2.3h-3.6c.2-3.1,2.8-5.3,7.1-5.3s6.7,2.2,6.7,5.5v11.4h-3.7v-2.7h-.1a5.8,5.8,0,0,1-5.1,3C880.1,398.4,877.7,396.3,877.7,393.4Zm10.7-1.5v-1.2l-3.8.2c-1.9.1-3,1-3,2.3s1.1,2.2,2.8,2.2A3.7,3.7,0,0,0,888.4,391.9Z" style="fill:#36393a"/><path d="M900.3,377.6v3.9h3.2v3h-3.2v8.6a1.8,1.8,0,0,0,2,2h1.1v3l-2,.2c-3.6,0-5-1.3-5-4.5v-9.2h-2.3v-3h2.3v-3.9Z" style="fill:#36393a"/><path d="M906,376.9a2.1,2.1,0,0,1,2.1-2.1,2.1,2.1,0,1,1,0,4.2A2.1,2.1,0,0,1,906,376.9Zm.2,4.6h3.9v16.6h-3.9Z" style="fill:#36393a"/><path d="M922.1,398.1h-4.3l-5.9-16.6h4.2l3.8,13h.1l3.9-13h4Z" style="fill:#36393a"/><path d="M943.8,393.1c-.5,3.2-3.4,5.3-7.3,5.3s-7.9-3.3-7.9-8.5,3-8.7,7.8-8.7,7.6,3.2,7.6,8.3v1.2H932.4v.3a4.1,4.1,0,0,0,4.2,4.4,3.5,3.5,0,0,0,3.6-2.3Zm-11.3-4.9h7.7c-.1-2.4-1.6-4-3.8-4A3.9,3.9,0,0,0,932.5,388.2Z" style="fill:#36393a"/><path d="M771,419.9h3.7v2.9h.1a5.4,5.4,0,0,1,5.2-3.2c3.7,0,5.7,2.4,5.7,6.2v10.7h-3.8v-9.9c0-2.4-1.1-3.7-3.4-3.7s-3.6,1.6-3.6,4v9.6H771Z" style="fill:#36393a"/><path d="M788.2,431.8c0-3,2.3-4.8,6.3-5l4.4-.3v-1.1c0-1.8-1.2-2.8-3.1-2.8s-3,.9-3.3,2.3h-3.6c.2-3.1,2.8-5.3,7-5.3s6.8,2.2,6.8,5.5v11.4H799v-2.7h-.1a6,6,0,0,1-5.2,3C790.5,436.8,788.2,434.7,788.2,431.8Zm10.7-1.5v-1.2l-3.9.2c-1.8.1-2.9,1-2.9,2.3s1.1,2.2,2.8,2.2A3.7,3.7,0,0,0,798.9,430.3Z" style="fill:#36393a"/><path d="M805.8,419.9h3.8v2.9h.1a4.8,4.8,0,0,1,4.7-3.2,4.5,4.5,0,0,1,4.6,3.3h.1a5.4,5.4,0,0,1,5.1-3.3,5.2,5.2,0,0,1,5.5,5.5v11.4h-3.9V426.1c0-2.1-1.1-3.2-3-3.2a3.2,3.2,0,0,0-3.2,3.4v10.2h-3.7V425.9a2.8,2.8,0,0,0-3-3,3.2,3.2,0,0,0-3.2,3.4v10.2h-3.9Z" style="fill:#36393a"/><path d="M847.4,431.5c-.5,3.2-3.4,5.3-7.4,5.3s-7.9-3.3-7.9-8.5,3-8.7,7.8-8.7,7.6,3.2,7.6,8.3v1.2H835.9v.3a4.1,4.1,0,0,0,4.2,4.4,3.5,3.5,0,0,0,3.6-2.3ZM836,426.6h7.7c-.1-2.4-1.6-4-3.8-4A3.9,3.9,0,0,0,836,426.6Z" style="fill:#36393a"/><path d="M856.4,419.6c4,0,6.6,2.2,6.7,5.3h-3.7a2.7,2.7,0,0,0-3-2.5c-1.7,0-2.9.9-2.9,2.1s.7,1.6,2.4,2l2.8.6c3.4.7,4.7,2.1,4.7,4.5s-2.8,5.2-6.9,5.2-6.9-2-7.2-5.3h3.8c.3,1.7,1.4,2.5,3.4,2.5s3.1-.8,3.1-2-.6-1.6-2.4-2l-2.7-.6c-3.2-.7-4.8-2.3-4.8-4.7S852.4,419.6,856.4,419.6Z" style="fill:#36393a"/><path d="M880.5,431.5c-.5,3.2-3.4,5.3-7.3,5.3s-8-3.3-8-8.5,3.1-8.7,7.8-8.7,7.7,3.2,7.7,8.3v1.2H869.1v.3a4,4,0,0,0,4.2,4.4,3.5,3.5,0,0,0,3.6-2.3Zm-11.4-4.9h7.8c-.1-2.4-1.6-4-3.8-4A4.1,4.1,0,0,0,869.1,426.6Z" style="fill:#36393a"/><path d="M883.2,419.9h3.7v2.9h.1a4,4,0,0,1,4-3.2l1.2.2v3.5l-1.6-.2c-2.2,0-3.5,1.4-3.5,3.7v9.7h-3.9Z" style="fill:#36393a"/><path d="M902.9,436.5h-4.2l-5.9-16.6h4.1l3.9,13h.1l3.8-13h4.1Z" style="fill:#36393a"/><path d="M924.7,431.5c-.5,3.2-3.4,5.3-7.3,5.3s-8-3.3-8-8.5,3-8.7,7.8-8.7,7.6,3.2,7.6,8.3v1.2H913.3v.3c0,2.6,1.6,4.4,4.1,4.4a3.5,3.5,0,0,0,3.6-2.3Zm-11.4-4.9H921c-.1-2.4-1.6-4-3.8-4A3.9,3.9,0,0,0,913.3,426.6Z" style="fill:#36393a"/><path d="M927.3,419.9h3.8v2.9h.1a3.9,3.9,0,0,1,3.9-3.2l1.2.2v3.5l-1.5-.2a3.4,3.4,0,0,0-3.6,3.7v9.7h-3.9Z" style="fill:#36393a"/><path d="M937.2,434.4a2.2,2.2,0,0,1,4.4,0,2.2,2.2,0,1,1-4.4,0Z" style="fill:#36393a"/><path d="M769.3,474.9V452.3h4v22.6Z" style="fill:#36393a"/><path d="M786,452.3a7.2,7.2,0,0,1,7.6,7.6c0,4.5-3.2,7.5-7.7,7.5h-4.6v7.5h-4V452.3Zm-4.7,11.9h3.6c2.9,0,4.6-1.6,4.6-4.3s-1.6-4.3-4.5-4.3h-3.7Z" style="fill:#36393a"/><path d="M801.9,470.2c0-3,2.3-4.8,6.3-5l4.4-.3v-1.1c0-1.8-1.2-2.8-3.1-2.8a3.1,3.1,0,0,0-3.3,2.3h-3.6c.2-3.1,2.8-5.3,7.1-5.3s6.7,2.2,6.7,5.5v11.4h-3.7v-2.7h-.1a5.8,5.8,0,0,1-5.2,3C804.2,475.2,801.9,473.1,801.9,470.2Zm10.7-1.5v-1.2l-3.8.2c-1.9.1-3,1-3,2.3s1.1,2.2,2.8,2.2A3.7,3.7,0,0,0,812.6,468.7Z" style="fill:#36393a"/><path d="M818.9,466.6c0-5.2,2.7-8.6,6.8-8.6a5.7,5.7,0,0,1,5.2,3.1h.1v-8.8h3.9v22.6H831v-2.8h0a5.7,5.7,0,0,1-5.3,3.1C821.6,475.2,818.9,471.9,818.9,466.6Zm4,0c0,3.3,1.5,5.4,4,5.4s4.1-2.1,4.1-5.4-1.6-5.4-4.1-5.4S822.9,463.3,822.9,466.6Z" style="fill:#36393a"/><path d="M837.4,466.6c0-5.2,2.7-8.6,6.9-8.6a5.4,5.4,0,0,1,5.1,3.1h.1v-8.8h3.9v22.6h-3.8v-2.8h-.1a5.7,5.7,0,0,1-5.2,3.1C840.1,475.2,837.4,471.9,837.4,466.6Zm4,0c0,3.3,1.6,5.4,4.1,5.4s4-2.1,4-5.4-1.6-5.4-4-5.4S841.4,463.3,841.4,466.6Z" style="fill:#36393a"/><path d="M856.7,458.3h3.7v2.9h.1a4,4,0,0,1,4-3.2l1.2.2v3.5l-1.6-.2c-2.2,0-3.5,1.4-3.5,3.7v9.7h-3.9Z" style="fill:#36393a"/><path d="M881.7,469.9c-.5,3.2-3.4,5.3-7.4,5.3s-7.9-3.3-7.9-8.5,3-8.7,7.8-8.7,7.6,3.2,7.6,8.3v1.2H870.2v.3a4.1,4.1,0,0,0,4.2,4.4,3.5,3.5,0,0,0,3.6-2.3ZM870.3,465H878c-.1-2.4-1.6-4-3.8-4A3.9,3.9,0,0,0,870.3,465Z" style="fill:#36393a"/><path d="M890.7,458c4,0,6.6,2.2,6.7,5.3h-3.7a2.7,2.7,0,0,0-3-2.5c-1.8,0-2.9.9-2.9,2.1s.7,1.6,2.4,2l2.8.6c3.4.7,4.7,2.1,4.7,4.5s-2.8,5.2-6.9,5.2-6.9-2-7.2-5.3h3.8c.3,1.7,1.4,2.5,3.4,2.5s3.1-.8,3.1-2-.6-1.6-2.4-2l-2.7-.6c-3.2-.7-4.8-2.3-4.8-4.7S886.7,458,890.7,458Z" style="fill:#36393a"/><path d="M906.6,458c4,0,6.6,2.2,6.6,5.3h-3.6a2.7,2.7,0,0,0-3-2.5c-1.8,0-2.9.9-2.9,2.1s.7,1.6,2.4,2l2.8.6c3.4.7,4.7,2.1,4.7,4.5s-2.8,5.2-6.9,5.2-6.9-2-7.2-5.3h3.8c.3,1.7,1.4,2.5,3.4,2.5s3.1-.8,3.1-2-.6-1.6-2.4-2l-2.7-.6c-3.2-.7-4.8-2.3-4.8-4.7S902.6,458,906.6,458Z" style="fill:#36393a"/><path d="M922.4,453.7a2.1,2.1,0,0,1,2.1-2.1,2.1,2.1,0,1,1,0,4.2A2.1,2.1,0,0,1,922.4,453.7Zm.2,4.6h3.9v16.6h-3.9Z" style="fill:#36393a"/><path d="M936.1,458c4,0,6.6,2.2,6.7,5.3h-3.6a2.8,2.8,0,0,0-3.1-2.5c-1.7,0-2.9.9-2.9,2.1s.7,1.6,2.5,2l2.7.6c3.5.7,4.8,2.1,4.8,4.5s-2.9,5.2-7,5.2-6.8-2-7.2-5.3h3.9c.3,1.7,1.4,2.5,3.3,2.5s3.1-.8,3.1-2-.6-1.6-2.3-2l-2.8-.6c-3.1-.7-4.7-2.3-4.7-4.7S932.1,458,936.1,458Z" style="fill:#36393a"/><path d="M780.4,494.6h-.1l-5.8,4v-3.7l5.9-4.2h3.9v22.6h-3.9Z" style="fill:#36393a"/><path d="M789.4,507.8h4a4,4,0,0,0,4.1,2.7c3.6,0,5.3-3.4,5.3-8.6h-.1c-.8,2.2-3.2,3.7-6.1,3.7a7.3,7.3,0,0,1-7.5-7.4c0-4.6,3.6-7.9,8.5-7.9s9.1,3.1,9.1,11.5-3.5,11.9-9.2,11.9C793.3,513.7,790,511.3,789.4,507.8Zm12.7-9.7a4.5,4.5,0,0,0-9-.1,4.5,4.5,0,0,0,9,.1Z" style="fill:#36393a"/><path d="M817.3,490.3c4.6,0,7.7,2.8,7.7,6.4s-1.3,4.5-5.2,8.3l-5,4.9h10.5v3.3H809.5v-2.8l7.9-7.8c3-2.9,3.6-4,3.6-5.7a3.5,3.5,0,0,0-3.7-3.5,4.1,4.1,0,0,0-4.3,4h-3.8C809.2,493.3,812.6,490.3,817.3,490.3Z" style="fill:#36393a"/><path d="M828.7,511.2A2.2,2.2,0,0,1,831,509a2.2,2.2,0,0,1,2.2,2.2,2.3,2.3,0,1,1-4.5,0Z" style="fill:#36393a"/><path d="M836.3,502c0-7.2,3.4-11.7,8.9-11.7s8.8,4.5,8.8,11.7-3.3,11.7-8.8,11.7S836.3,509.2,836.3,502Zm13.7,0c0-5.3-1.8-8.4-4.8-8.4s-4.8,3.1-4.8,8.4,1.7,8.4,4.8,8.4S850,507.3,850,502Z" style="fill:#36393a"/><path d="M856.7,511.2A2.2,2.2,0,0,1,859,509a2.2,2.2,0,0,1,2.2,2.2,2.3,2.3,0,1,1-4.5,0Z" style="fill:#36393a"/><path d="M864.3,502c0-7.2,3.4-11.7,8.9-11.7s8.8,4.5,8.8,11.7-3.3,11.7-8.8,11.7S864.3,509.2,864.3,502Zm13.7,0c0-5.3-1.8-8.4-4.8-8.4s-4.8,3.1-4.8,8.4,1.7,8.4,4.8,8.4S878,507.3,878,502Z" style="fill:#36393a"/><path d="M884.7,511.2A2.2,2.2,0,0,1,887,509a2.2,2.2,0,0,1,2.2,2.2,2.3,2.3,0,1,1-4.5,0Z" style="fill:#36393a"/><path d="M896.9,494.6h-.1l-5.8,4v-3.7l5.9-4.2h4v22.6h-4Z" style="fill:#36393a"/><path d="M917.3,494.1H905.5v-3.3h15.7v3.4l-9.6,19.2h-4.2Z" style="fill:#36393a"/><path d="M924.5,499.2l1.3-8.5h3.8l-2.1,8.5Zm6.6,0,1.4-8.5h3.8l-2.2,8.5Z" style="fill:#36393a"/><path d="M788.5,12.2l-1.4,8.5h-3.8l2.2-8.5Zm6.6,0-1.3,8.5H790l2.1-8.5Z" style="fill:#36393a"/><path d="M806.9,34.8h-3.8L797,12.2h4.2l3.9,17.1h.1l4.6-17.1h3.5l4.6,17.1h.1l3.9-17.1h4.2L820,34.8h-3.8l-4.6-16.4h-.1Z" style="fill:#36393a"/><path d="M828.5,12.2h3.8V21h.1a5.3,5.3,0,0,1,5.2-3.1c3.7,0,5.8,2.4,5.8,6.2V34.8h-3.9V24.9c0-2.3-1.1-3.7-3.4-3.7s-3.7,1.6-3.7,4v9.6h-3.9Z" style="fill:#36393a"/><path d="M845.9,30c0-2.9,2.2-4.7,6.3-4.9l4.3-.3V23.6c0-1.7-1.1-2.7-3-2.7s-3.1.9-3.3,2.3h-3.6c.2-3.1,2.8-5.3,7-5.3s6.8,2.1,6.8,5.5V34.8h-3.8V32.1h0a6,6,0,0,1-5.2,2.9C848.2,35,845.9,33,845.9,30Zm10.6-1.4V27.4l-3.8.2c-1.9.1-2.9,1-2.9,2.3s1.1,2.2,2.8,2.2A3.6,3.6,0,0,0,856.5,28.6Z" style="fill:#36393a"/><path d="M868.5,14.3v3.9h3.1v3h-3.1v8.6c0,1.4.6,2,2,2h1.1v3h-2c-3.6,0-5-1.2-5-4.4V21.2h-2.4v-3h2.4V14.3Z" style="fill:#36393a"/><path d="M874.2,20.7l1.4-8.5h3.8l-2.2,8.5Z" style="fill:#36393a"/><path d="M887,17.9c4.1,0,6.6,2.1,6.7,5.3h-3.6c-.1-1.5-1.3-2.5-3.1-2.5s-2.8.8-2.8,2,.7,1.7,2.4,2l2.8.7c3.4.7,4.7,2,4.7,4.5s-2.9,5.2-6.9,5.2-6.9-2.1-7.2-5.3h3.8c.3,1.6,1.4,2.4,3.4,2.4s3-.7,3-2-.5-1.5-2.3-1.9l-2.7-.6q-4.8-1.1-4.8-4.8C880.4,19.9,883,17.9,887,17.9Z" style="fill:#36393a"/><path d="M908,14.3v3.9h3.1v3H908v8.6c0,1.4.6,2,2,2h1.1v3h-2c-3.6,0-5-1.2-5-4.4V21.2h-2.4v-3h2.4V14.3Z" style="fill:#36393a"/><path d="M913.8,12.2h3.9V21h.1a5.3,5.3,0,0,1,5.2-3.1c3.7,0,5.8,2.4,5.8,6.2V34.8h-3.9V24.9c0-2.3-1.1-3.7-3.4-3.7a3.7,3.7,0,0,0-3.8,4v9.6h-3.9Z" style="fill:#36393a"/><path d="M946.5,29.8c-.5,3.1-3.4,5.3-7.3,5.3s-8-3.3-8-8.6,3-8.6,7.8-8.6,7.7,3.2,7.7,8.3v1.2H935.1v.3a4,4,0,0,0,4.2,4.4,3.5,3.5,0,0,0,3.6-2.3Zm-11.4-4.9h7.8a3.8,3.8,0,0,0-3.9-4C936.9,20.9,935.3,22.5,935.1,24.9Z" style="fill:#36393a"/><path d="M956,34.8V12.2h4V34.8Z" style="fill:#36393a"/><path d="M972.7,12.2a7.2,7.2,0,0,1,7.6,7.6c0,4.5-3.2,7.5-7.7,7.5H968v7.5h-4V12.2ZM968,24.1h3.7c2.8,0,4.5-1.6,4.5-4.3s-1.6-4.3-4.5-4.3H968Z" style="fill:#36393a"/><path d="M990.4,21.2h-2.3v-3h2.3V16.8c0-3.2,1.5-4.8,5.1-4.8l2.1.2v2.7h-1.3a1.9,1.9,0,0,0-2.1,2.1v1.3h3.3v3h-3.3V34.8h-3.8Z" style="fill:#36393a"/><path d="M998.8,26.5c0-5.4,3.2-8.6,8-8.6s8,3.2,8,8.6-3.1,8.6-8,8.6S998.8,31.9,998.8,26.5Zm12.1,0c0-3.5-1.6-5.6-4.1-5.6s-4,2.1-4,5.6,1.5,5.5,4,5.5S1010.9,30,1010.9,26.5Z" style="fill:#36393a"/><path d="M1017.3,18.2h3.8v2.9h0a4.1,4.1,0,0,1,4-3.2l1.2.2v3.5l-1.5-.2a3.3,3.3,0,0,0-3.6,3.7v9.7h-3.9Z" style="fill:#36393a"/><path d="M809.3,68.2c-.5,3.1-3.4,5.3-7.3,5.3s-8-3.3-8-8.6,3-8.6,7.8-8.6,7.7,3.2,7.7,8.3v1.2H797.9v.3a4,4,0,0,0,4.2,4.4,3.6,3.6,0,0,0,3.6-2.3Zm-11.4-4.9h7.8a3.8,3.8,0,0,0-3.9-4C799.7,59.3,798.1,60.9,797.9,63.3Z" style="fill:#36393a"/><path d="M818.1,67.2l-3.4,6h-4.2l5.4-8.3-5.3-8.3h4.3l3.4,5.8h.1l3.3-5.8h4.2l-5.3,8.2,5.3,8.4h-4.3l-3.4-6Z" style="fill:#36393a"/><path d="M827,68.4c0-2.9,2.2-4.7,6.3-4.9l4.4-.3V62c0-1.7-1.2-2.7-3.1-2.7s-3.1.9-3.3,2.3h-3.6c.2-3.1,2.8-5.3,7-5.3s6.8,2.1,6.8,5.5V73.2h-3.7V70.5h-.1a6,6,0,0,1-5.2,2.9C829.3,73.4,827,71.4,827,68.4ZM837.7,67V65.8l-3.9.2c-1.8.1-2.9,1-2.9,2.3s1.1,2.2,2.8,2.2A3.7,3.7,0,0,0,837.7,67Z" style="fill:#36393a"/><path d="M844.6,56.6h3.8v2.9h0a5,5,0,0,1,4.8-3.2,4.5,4.5,0,0,1,4.6,3.3h.1a5.3,5.3,0,0,1,5.1-3.3,5.1,5.1,0,0,1,5.4,5.5V73.2h-3.9V62.8c0-2.1-1-3.2-2.9-3.2a3.1,3.1,0,0,0-3.2,3.3V73.2h-3.8V62.6a2.7,2.7,0,0,0-2.9-3,3.2,3.2,0,0,0-3.2,3.4V73.2h-3.9Z" style="fill:#36393a"/><path d="M887.5,64.9c0,5.3-2.6,8.5-6.8,8.5a5.5,5.5,0,0,1-5.2-3h-.1v8.2h-3.9v-22h3.8v2.9h.1a5.6,5.6,0,0,1,5.2-3.2C884.8,56.3,887.5,59.6,887.5,64.9Zm-4,0c0-3.3-1.5-5.4-4-5.4s-4.1,2.2-4.1,5.4,1.6,5.3,4.1,5.3S883.5,68.2,883.5,64.9Z" style="fill:#36393a"/><path d="M890.1,50.6H894V73.2h-3.9Z" style="fill:#36393a"/><path d="M911.9,68.2c-.5,3.1-3.4,5.3-7.3,5.3s-8-3.3-8-8.6,3.1-8.6,7.9-8.6,7.6,3.2,7.6,8.3v1.2H900.5v.3a4,4,0,0,0,4.2,4.4,3.5,3.5,0,0,0,3.6-2.3Zm-11.4-4.9h7.8c-.1-2.4-1.6-4-3.8-4A4,4,0,0,0,900.5,63.3Z" style="fill:#36393a"/><path d="M915.1,71.1a2.2,2.2,0,1,1,4.4,0,2.2,2.2,0,0,1-4.4,0Z" style="fill:#36393a"/><path d="M933.3,62.5a3.4,3.4,0,0,0-3.6-3.1c-2.4,0-4,2.1-4,5.5s1.6,5.4,4.1,5.4a3.5,3.5,0,0,0,3.6-3H937c-.3,3.8-3.1,6.2-7.3,6.2s-8-3.2-8-8.6,3.2-8.6,8-8.6,7.1,2.7,7.3,6.2Z" style="fill:#36393a"/><path d="M938.7,64.9c0-5.4,3.1-8.6,8-8.6s8,3.2,8,8.6-3.2,8.6-8,8.6S938.7,70.3,938.7,64.9Zm12,0c0-3.5-1.6-5.6-4-5.6s-4.1,2.1-4.1,5.6,1.6,5.5,4.1,5.5S950.7,68.4,950.7,64.9Z" style="fill:#36393a"/><path d="M957.2,56.6h3.7v2.9h.1a4.9,4.9,0,0,1,4.7-3.2,4.4,4.4,0,0,1,4.6,3.3h.1a5.4,5.4,0,0,1,5.2-3.3,5.1,5.1,0,0,1,5.4,5.5V73.2h-3.9V62.8c0-2.1-1.1-3.2-3-3.2a3,3,0,0,0-3.1,3.3V73.2h-3.8V62.6a2.7,2.7,0,0,0-2.9-3,3.2,3.2,0,0,0-3.2,3.4V73.2h-3.9Z" style="fill:#36393a"/><path d="M990.7,50.4c4.3,0,7.1,2.5,7.1,5.9a6.1,6.1,0,0,1-3.3,5.4c-2,1.1-2.6,2-2.6,3.5v.9h-3.7V65c-.1-2.3.8-3.7,3-5s2.6-2,2.6-3.5a3,3,0,0,0-3.3-2.9,3.3,3.3,0,0,0-3.5,3.2h-3.6C983.5,53.1,986,50.4,990.7,50.4Zm-2.9,20.9a2.3,2.3,0,0,1,4.6,0,2.3,2.3,0,0,1-4.6,0Z" style="fill:#36393a"/><path d="M1001.1,59.1l1.3-8.5h3.8l-2.1,8.5Zm6.6,0,1.4-8.5h3.8l-2.2,8.5Z" style="fill:#36393a"/><path d="M819.7,145.2l-1.4,8.5h-3.8l2.2-8.5Zm6.6,0-1.3,8.5h-3.8l2.1-8.5Z" style="fill:#36393a"/><path d="M835.7,149.1h-.1l-5.8,4v-3.7l5.8-4.2h4v22.6h-3.9Z" style="fill:#36393a"/><path d="M844.7,162.2h4c.5,1.8,2.1,2.7,4.1,2.7,3.6,0,5.3-3.3,5.3-8.5H858c-.9,2.2-3.2,3.6-6.1,3.6a7.2,7.2,0,0,1-7.5-7.4c0-4.6,3.6-7.9,8.5-7.9s9.1,3.2,9.1,11.5-3.5,12-9.2,12C848.6,168.2,845.3,165.8,844.7,162.2Zm12.7-9.6a4.5,4.5,0,0,0-9-.1,4.5,4.5,0,0,0,9,.1Z" style="fill:#36393a"/><path d="M872.6,144.8c4.6,0,7.7,2.8,7.7,6.4s-1.3,4.4-5.2,8.3l-5,4.9h10.5v3.3H864.8V165l7.9-7.8c3-2.9,3.6-4,3.6-5.7a3.5,3.5,0,0,0-3.7-3.5,4.1,4.1,0,0,0-4.3,3.9h-3.8C864.5,147.7,867.9,144.8,872.6,144.8Z" style="fill:#36393a"/><path d="M884,165.7a2.3,2.3,0,1,1,4.5,0,2.2,2.2,0,0,1-2.2,2.2A2.2,2.2,0,0,1,884,165.7Z" style="fill:#36393a"/><path d="M891.6,156.5c0-7.2,3.3-11.7,8.9-11.7s8.8,4.4,8.8,11.6-3.3,11.8-8.8,11.8S891.6,163.7,891.6,156.5Zm13.7,0c0-5.3-1.8-8.4-4.8-8.4s-4.8,3.1-4.8,8.3,1.7,8.5,4.8,8.5S905.3,161.8,905.3,156.5Z" style="fill:#36393a"/><path d="M912,165.7a2.3,2.3,0,1,1,4.5,0,2.2,2.2,0,0,1-2.2,2.2A2.2,2.2,0,0,1,912,165.7Z" style="fill:#36393a"/><path d="M919.6,156.5c0-7.2,3.3-11.7,8.9-11.7s8.8,4.4,8.8,11.6-3.3,11.8-8.8,11.8S919.6,163.7,919.6,156.5Zm13.7,0c0-5.3-1.8-8.4-4.8-8.4s-4.8,3.1-4.8,8.3,1.7,8.5,4.8,8.5S933.3,161.8,933.3,156.5Z" style="fill:#36393a"/><path d="M940,165.7a2.3,2.3,0,1,1,4.5,0,2.2,2.2,0,0,1-2.2,2.2A2.2,2.2,0,0,1,940,165.7Z" style="fill:#36393a"/><path d="M952.2,149.1h-.1l-5.8,4v-3.7l5.9-4.2h3.9v22.6h-3.9Z" style="fill:#36393a"/><path d="M961.1,156.7c0-7.5,3.4-12,9.2-12,4.2,0,7.4,2.5,8,6.1h-4a3.8,3.8,0,0,0-4-2.8c-3.5,0-5.3,3.3-5.3,8.6h0a6.5,6.5,0,0,1,6.2-3.7,7.1,7.1,0,0,1,7.4,7.4c0,4.6-3.5,7.9-8.4,7.9S961.1,164.7,961.1,156.7Zm13.6,3.8a4.3,4.3,0,0,0-4.5-4.4,4.3,4.3,0,0,0-4.6,4.3,4.5,4.5,0,0,0,4.5,4.5A4.4,4.4,0,0,0,974.7,160.5Z" style="fill:#36393a"/><path d="M981.7,153.7l1.3-8.5h3.8l-2.1,8.5Zm6.6,0,1.4-8.5h3.8l-2.2,8.5Z" style="fill:#36393a"/><line x1="669" y1="87" x2="1132.2" y2="87" style="fill:none;stroke:#404242;stroke-miterlimit:10;stroke-width:6.311141848564148px"/><polygon points="1111.2 112.8 1106.9 108.2 1129.7 87 1106.9 65.8 1111.2 61.2 1139 87 1111.2 112.8" style="fill:#404242"/><line x1="1139" y1="176.5" x2="770.8" y2="176" style="fill:none;stroke:#404242;stroke-miterlimit:10;stroke-width:6.311141848564148px"/><polygon points="791.8 150.2 796.1 154.9 773.3 176 796 197.2 791.7 201.8 764 176 791.8 150.2" style="fill:#404242"/><path d="M594.2,741H441.1a36.3,36.3,0,0,1-34.5-47.7l17.5-56.2a65.8,65.8,0,0,1,34.4-37.7H577.2A66.1,66.1,0,0,1,611.1,637l17.7,56.3A36.4,36.4,0,0,1,594.2,741Z" style="fill:#bf223c"/><path d="M595.6,575.6H517.2l-78.3-.2L487.5,502c7.1-10.2,17.6-16.6,29.7-16.5h.9c12.2.2,23.1,6.3,30.4,17Z" style="fill:#bf223c"/><path d="M597.9,579.9c0,4.7-2.1,11.6-11.3,18.3-.1,0-.1,0-.1.2l-63.4,47.3a8.4,8.4,0,0,1-4.6,1.5h-.8a7.6,7.6,0,0,1-3.5-1.4l-31.7-23-32.9-23.9h-.2v-.2h0c-9.8-6.7-11.8-13.7-11.8-18.6a18.9,18.9,0,0,1,4.3-11.8c7.8-9.8,23.2-15.5,39.4-18.8v18.3l36.5-.2h36.4v-18c16.5,3.3,32.1,9.2,39.7,19.1A19.9,19.9,0,0,1,597.9,579.9Z" style="fill:#bf223c"/><path d="M560.4,553.5v22.3c1.3,16.3-19.6,49.4-42.6,49.4s-42.7-31.6-42.7-49.1V553.5a205.2,205.2,0,0,1,42.6-4.7A208.2,208.2,0,0,1,560.4,553.5Z" style="fill:#fff"/><path d="M480.6,570.2c-3.4,1.1-5.3,3.5-5.7,6.1a14.9,14.9,0,0,0,0,3l11.9-10A34.7,34.7,0,0,0,480.6,570.2Z" style="fill:#bf223c"/><path d="M480.6,570.2c-3.4,1.1-5.3,3.5-5.7,6.1a14.9,14.9,0,0,0,0,3l11.9-10A34.7,34.7,0,0,0,480.6,570.2Z" style="fill:#bf223c;opacity:0.730000019073486;isolation:isolate"/><path d="M504.5,570.8a24.3,24.3,0,0,0-5-1l-21.4,17.9.8.9a12,12,0,0,0,5,3.1,19,19,0,0,0,4.7,1.1h3.5s7.1-.2,11.7-3.8,5.8-9.3,5.7-12.5C509.5,575,507.8,572,504.5,570.8Z" style="fill:#bf223c"/><path d="M504.5,570.8a24.3,24.3,0,0,0-5-1l-21.4,17.9.8.9a12,12,0,0,0,5,3.1,19,19,0,0,0,4.7,1.1h3.5s7.1-.2,11.7-3.8,5.8-9.3,5.7-12.5C509.5,575,507.8,572,504.5,570.8Z" style="fill:#bf223c;opacity:0.730000019073486;isolation:isolate"/><path d="M492.1,569.2l-16.4,13.9a8.5,8.5,0,0,0,.6,1.7l18.5-15.5Z" style="fill:#bf223c"/><path d="M492.1,569.2l-16.4,13.9a8.5,8.5,0,0,0,.6,1.7l18.5-15.5Z" style="fill:#bf223c;opacity:0.730000019073486;isolation:isolate"/><path d="M530.9,570.8c-3.2,1.2-4.9,4.2-4.9,5.7a15.7,15.7,0,0,0,1,5.5l15.1-12.7C537.7,569.4,533.3,569.9,530.9,570.8Z" style="fill:#bf223c"/><path d="M530.9,570.8c-3.2,1.2-4.9,4.2-4.9,5.7a15.7,15.7,0,0,0,1,5.5l15.1-12.7C537.7,569.4,533.3,569.9,530.9,570.8Z" style="fill:#bf223c;opacity:0.730000019073486;isolation:isolate"/><path d="M547.3,569.3l-18.9,15.9,1,1.5,20.5-17.3Z" style="fill:#bf223c"/><path d="M547.3,569.3l-18.9,15.9,1,1.5,20.5-17.3Z" style="fill:#bf223c;opacity:0.730000019073486;isolation:isolate"/><path d="M560.6,576.3c-.4-2.6-2.4-5-5.7-6.1h-.5l-22.6,19c4,3,9.8,3.6,11.2,3.7h3.9a19,19,0,0,0,4.7-1.1,12.7,12.7,0,0,0,5-3.1C560.2,585.2,561,579.1,560.6,576.3Z" style="fill:#bf223c"/><path d="M560.6,576.3c-.4-2.6-2.4-5-5.7-6.1h-.5l-22.6,19c4,3,9.8,3.6,11.2,3.7h3.9a19,19,0,0,0,4.7-1.1,12.7,12.7,0,0,0,5-3.1C560.2,585.2,561,579.1,560.6,576.3Z" style="fill:#bf223c;opacity:0.730000019073486;isolation:isolate"/><path d="M486.8,569.3l-11.9,10a18.4,18.4,0,0,0,.8,3.8l16.4-13.9Z" style="fill:#bf223c"/><path d="M494.8,569.3l-18.5,15.5a11.9,11.9,0,0,0,1.8,2.9l21.4-17.9Z" style="fill:#bf223c"/><path d="M542.1,569.3,527,582a28.4,28.4,0,0,0,1.4,3.2l18.9-15.9Z" style="fill:#bf223c"/><path d="M549.9,569.4l-20.5,17.3a12.5,12.5,0,0,0,2.3,2.3.1.1,0,0,0,.1.1l22.6-19A33.1,33.1,0,0,0,549.9,569.4Z" style="fill:#bf223c"/><path d="M472.7,571.5c1.3-.1,2.6-.5,2.5-.9s-1.4-.5-2.8-.4-2.6.5-2.5.8S471.2,571.6,472.7,571.5Z" style="fill:#bf223c"/><path d="M562.9,570.2c-1.4-.1-2.6.1-2.6.5s1.2.7,2.6.8,2.7-.2,2.7-.5S564.4,570.3,562.9,570.2Z" style="fill:#bf223c"/><path d="M539.9,567.1c-9.3.3-17.5,3.8-22.4,3.9s-10.3-3.1-22.4-3.9a119.7,119.7,0,0,0-27.4,1.4l.5,4.8a4.4,4.4,0,0,1,3.2,3c1,3.4.7,9.4,4.2,12.9s8.4,5.1,12.8,5.3,13.6-.3,18.9-5.3a21.7,21.7,0,0,0,4.7-6.9c1.3-2.8,2.1-5.8,3.5-6.7a4.1,4.1,0,0,1,2-.2,3.5,3.5,0,0,1,2.7.7c1.7,1.5,2.5,4.8,4,7.9a19.8,19.8,0,0,0,4.5,5.6c4.7,4.3,15.2,5.1,18.9,4.9s8.8-1.5,11.7-4.6a14.8,14.8,0,0,0,3-5.5c.9-2.8,1.2-5.8,1.8-7.9a3.8,3.8,0,0,1,3-3l.7-5A148.1,148.1,0,0,0,539.9,567.1ZM503.8,589c-4.6,3.6-11.7,3.8-11.7,3.8h-3.5a19,19,0,0,1-4.7-1.1,12,12,0,0,1-5-3.1l-.8-.9a11.9,11.9,0,0,1-1.8-2.9,8.5,8.5,0,0,1-.6-1.7,18.4,18.4,0,0,1-.8-3.8,14.9,14.9,0,0,1,0-3c.4-2.6,2.3-5,5.7-6.1a34.7,34.7,0,0,1,6.2-.9h8l4.7.5a24.3,24.3,0,0,1,5,1c3.3,1.2,5,4.2,5,5.7C509.6,579.7,507.8,585.9,503.8,589Zm-33.9-18c-.1-.3,1.1-.7,2.5-.8s2.6.1,2.8.4-1.2.8-2.5.9S470,571.4,469.9,571Zm93,.5c-1.4-.1-2.5-.4-2.6-.8s1.2-.6,2.6-.5,2.6.4,2.7.8S564.3,571.5,562.9,571.5Zm-11.3,20.2a19,19,0,0,1-4.7,1.1H543c-1.4-.1-7.2-.7-11.2-3.7a.1.1,0,0,1-.1-.1,12.5,12.5,0,0,1-2.3-2.3l-1-1.5A28.4,28.4,0,0,1,527,582a15.7,15.7,0,0,1-1-5.5c0-1.5,1.7-4.5,4.9-5.7s6.8-1.4,11.2-1.5h7.8a33.1,33.1,0,0,1,4.5.7h.5c3.3,1.1,5.3,3.5,5.7,6.1s-.4,8.9-4,12.3A12.7,12.7,0,0,1,551.6,591.7Z" style="fill:#bf223c"/><path d="M574.8,644.4H460.5a5.9,5.9,0,0,0-6.1,5.8v83.3H581V650.2A6,6,0,0,0,574.8,644.4Z" style="fill:#fff"/><path d="M844.2,540.2c-36.8,73.9-111.7,125.6-199,129.1" style="fill:none;stroke:#bf223c;stroke-miterlimit:10;stroke-width:5px"/><path d="M652.8,194.9c83.7,4.7,155.5,53.6,192.7,123.6" style="fill:none;stroke:#bf223c;stroke-miterlimit:10;stroke-width:5px"/><polygon points="667.9 216.7 671.5 213.3 654.7 195.2 674 179.8 670.9 175.9 647.4 194.7 667.9 216.7" style="fill:#bf223c"/><path d="M183.1,381c21-103.6,110.7-182.2,219.5-186.3" style="fill:none;stroke:#bf223c;stroke-miterlimit:10;stroke-width:5px"/><polygon points="387.2 216.2 383.6 212.7 400.7 194.9 381.7 179.2 384.9 175.3 408 194.5 387.2 216.2" style="fill:#bf223c"/><path d="M407.5,669.5c-110.7,0-203.4-77.3-227.1-180.8" style="fill:none;stroke:#bf223c;stroke-miterlimit:10;stroke-width:5px"/></svg>